<svg viewBox="0 0 61 60" xmlns="http://www.w3.org/2000/svg" width="61" height="60">
    <path d="M30 0C13.431 0 0 13.431 0 30c0 16.569 13.431 30 30 30 16.569 0 30-13.431 30-30C60 13.431 46.569 0 30 0zm0 2c15.464 0 28 12.536 28 28S45.464 58 30 58 2 45.464 2 30 14.536 2 30 2zm-5.926 24.275v3.55h2.711V42.16h5.082V29.826h4.022l.302-3.55h-4.324v-2.773c0-.953.945-1.296 2-1.296 1.053 0 2.183.296 2.183.296l.678-3.634s-1.44-.442-4.86-.442c-2.1 0-3.32.724-4.21 1.788-.843 1.004-.873 2.624-.873 3.677v2.383h-2.71z"></path>
</svg>
