<svg viewBox="0 0 61 60" xmlns="http://www.w3.org/2000/svg" width="61" height="60">
    <path d="M30 0C13.431 0 0 13.431 0 30c0 16.569 13.431 30 30 30 16.569 0 30-13.431 30-30C60 13.431 46.569 0 30 0zm0 2c15.464 0 28 12.536 28 28S45.464 58 30 58 2 45.464 2 30 14.536 2 30 2zm-6.237 19.394a2.296 2.296 0 0 0-2.294 2.285v13.23a2.295 2.295 0 0 0 2.294 2.283H37.04a2.294 2.294 0 0 0 2.293-2.283v-13.23a2.295 2.295 0 0 0-2.292-2.285H23.763zm10.72 1.977h2.02c.441 0 .803.361.803.802v1.917a.805.805 0 0 1-.804.802h-2.019a.804.804 0 0 1-.804-.802v-1.917c0-.44.36-.802.804-.802zm2.831 5.55v7.519a.71.71 0 0 1-.71.707h-12.44a.71.71 0 0 1-.709-.707v-7.52h1.64c-.148.485-.23.997-.23 1.529 0 2.96 2.487 5.36 5.553 5.36 3.067 0 5.554-2.4 5.554-5.36a5.16 5.16 0 0 0-.23-1.529h1.572zm-6.896-2.13c1.982 0 3.588 1.55 3.588 3.464 0 1.912-1.606 3.464-3.588 3.464-1.98 0-3.587-1.552-3.587-3.464 0-1.914 1.607-3.464 3.587-3.464z"></path>
</svg>
