<svg viewBox="0 0 61 60" xmlns="http://www.w3.org/2000/svg" width="61" height="60">
    <path d="M30 0C13.431 0 0 13.431 0 30c0 16.569 13.431 30 30 30 16.569 0 30-13.431 30-30C60 13.431 46.569 0 30 0zm0 2c15.464 0 28 12.536 28 28S45.464 58 30 58 2 45.464 2 30 14.536 2 30 2zm11.938 21.784a9.633 9.633 0 0 1-2.63.678c.945-.534 1.672-1.377 2.014-2.382a9.504 9.504 0 0 1-2.909 1.045 4.715 4.715 0 0 0-3.345-1.36c-2.53 0-4.581 1.928-4.581 4.306 0 .338.04.665.118.98-3.807-.178-7.182-1.892-9.442-4.499a4.103 4.103 0 0 0-.62 2.166c0 1.493.808 2.812 2.037 3.584a4.8 4.8 0 0 1-2.075-.539v.054c0 2.087 1.58 3.827 3.675 4.223a4.896 4.896 0 0 1-2.069.073c.583 1.712 2.275 2.956 4.28 2.992a9.567 9.567 0 0 1-5.69 1.843c-.37 0-.734-.021-1.093-.06a13.584 13.584 0 0 0 7.024 1.933c8.426 0 13.034-6.56 13.034-12.25l-.012-.56a9.024 9.024 0 0 0 2.284-2.227z"></path>
</svg>
